<?xml version="1.0" encoding="UTF-8" standalone="no"?>
<!-- Generator: Adobe Illustrator 12.0.1, SVG Export Plug-In . SVG Version: 6.00 Build 51448)  -->
<svg
   xmlns:dc="http://purl.org/dc/elements/1.1/"
   xmlns:cc="http://creativecommons.org/ns#"
   xmlns:rdf="http://www.w3.org/1999/02/22-rdf-syntax-ns#"
   xmlns:svg="http://www.w3.org/2000/svg"
   xmlns="http://www.w3.org/2000/svg"
   xmlns:sodipodi="http://sodipodi.sourceforge.net/DTD/sodipodi-0.dtd"
   xmlns:inkscape="http://www.inkscape.org/namespaces/inkscape"
   version="1.1"
   id="Layer_1"
   width="200.204"
   height="148.885"
   viewBox="0 0 200.204 148.885"
   style="overflow:visible;enable-background:new 0 0 200.204 148.885;"
   xml:space="preserve"
   sodipodi:version="0.32"
   inkscape:version="0.46"
   sodipodi:docname="Guanin.svg"
   inkscape:output_extension="org.inkscape.output.svg.inkscape"><metadata
   id="metadata74"><rdf:RDF><cc:Work
       rdf:about=""><dc:format>image/svg+xml</dc:format><dc:type
         rdf:resource="http://purl.org/dc/dcmitype/StillImage" /></cc:Work></rdf:RDF></metadata><defs
   id="defs72"><inkscape:perspective
   sodipodi:type="inkscape:persp3d"
   inkscape:vp_x="0 : 74.442497 : 1"
   inkscape:vp_y="0 : 1000 : 0"
   inkscape:vp_z="200.20399 : 74.442497 : 1"
   inkscape:persp3d-origin="100.102 : 49.628332 : 1"
   id="perspective76" />
	
	

	

	

	

	

	

	
	

	
</defs><sodipodi:namedview
   inkscape:window-height="675"
   inkscape:window-width="661"
   inkscape:pageshadow="2"
   inkscape:pageopacity="0.0"
   guidetolerance="10.0"
   gridtolerance="10.0"
   objecttolerance="10.0"
   borderopacity="1.0"
   bordercolor="#666666"
   pagecolor="#ffffff"
   id="base"
   showgrid="false"
   inkscape:zoom="2.7172285"
   inkscape:cx="100.102"
   inkscape:cy="74.442497"
   inkscape:window-x="22"
   inkscape:window-y="22"
   inkscape:current-layer="Layer_1" />
<path
   id="path5"
   d="M 122.88015,76.856925 L 122.88015,60.529275 L 125.10315,60.529275 L 133.65695,73.343825 L 133.65695,60.529275 L 135.73555,60.529275 L 135.73555,76.857875 L 133.51255,76.857875 L 124.95875,64.043325 L 124.95875,76.857875 L 122.88015,76.857875 L 122.88015,76.856925 z"
   style="fill:#231f20" /><path
   id="path7"
   d="M 139.4491,76.856925 L 139.4491,60.529275 L 141.61605,60.529275 L 141.61605,67.239125 L 150.0625,67.239125 L 150.0625,60.529275 L 152.22945,60.529275 L 152.22945,76.857875 L 150.0625,76.857875 L 150.0625,69.168575 L 141.61605,69.168575 L 141.61605,76.857875 L 139.4491,76.857875 L 139.4491,76.856925 z"
   style="fill:#231f20" />
<path
   id="path11"
   d="M 90.2467,133.47693 L 90.2467,117.14833 L 92.4697,117.14833 L 101.0235,129.96287 L 101.0235,117.14833 L 103.1021,117.14833 L 103.1021,133.47693 L 100.8791,133.47693 L 92.3253,120.66238 L 92.3253,133.47693 L 90.2467,133.47693 L 90.2467,133.47693 z"
   style="fill:#231f20" />
<path
   style="fill:#231f20"
   d="M 130.1201,105.11943 L 129.3126,105.59443 L 128.5051,105.11943 L 128.5051,78.994425 L 130.1201,78.994425 L 130.1201,105.11943 z"
   id="polygon13" />
<path
   style="fill:#231f20"
   d="M 106.8926,119.51193 L 106.0851,118.13538 L 128.5051,105.11943 L 129.3126,105.59443 L 129.3126,106.49788 L 106.8926,119.51193 z"
   id="polygon15" />
<path
   style="fill:#231f20"
   d="M 104.0426,114.61943 L 103.2351,113.24193 L 123.2801,101.60443 L 124.0876,103.02943 L 104.0426,114.61943 z"
   id="polygon17" />
<path
   style="fill:#231f20"
   d="M 63.9051,106.45038 L 64.0001,105.59443 L 64.8076,105.11943 L 87.2751,118.08693 L 86.4676,119.51193 L 63.9051,106.45038 z"
   id="polygon19" />
<path
   style="fill:#231f20"
   d="M 63.1926,68.497875 L 64.0001,67.880375 L 64.8076,68.355375 L 64.8076,105.11943 L 64.0001,105.59443 L 63.1926,104.97787 L 63.1926,68.497875 z"
   id="polygon21" />
<path
   style="fill:#231f20"
   d="M 68.845097,71.156926 L 70.460097,71.156926 L 70.460097,102.31693 L 68.845097,102.31693 L 68.845097,71.156926 z"
   id="rect23" />
<path
   style="fill:#231f20"
   d="M 96.6801,48.119425 L 96.6801,49.972875 L 64.8076,68.355375 L 64.0001,67.880375 L 63.9051,67.024425 L 96.6801,48.119425 z"
   id="polygon25" />
<path
   style="fill:#231f20"
   d="M 96.6801,49.972875 L 96.6801,48.119425 L 119.9076,61.514425 L 119.1001,62.939425 L 96.6801,49.972875 z"
   id="polygon27" />
<path
   id="path31"
   d="M 21.7042,126.21038 L 21.7042,109.88178 L 23.9272,109.88178 L 32.481,122.69633 L 32.481,109.88178 L 34.5596,109.88178 L 34.5596,126.21038 L 32.3366,126.21038 L 23.7828,113.39583 L 23.7828,126.21038 L 21.7042,126.21038 z"
   style="fill:#231f20" />
<path
   id="path35"
   d="M 21.8087,145.16288 L 21.8087,128.83428 L 23.97565,128.83428 L 23.97565,135.54413 L 32.4221,135.54413 L 32.4221,128.83428 L 34.58905,128.83428 L 34.58905,145.16288 L 32.4221,145.16288 L 32.4221,137.47358 L 23.97565,137.47358 L 23.97565,145.16288 L 21.8087,145.16288 z"
   style="fill:#231f20" />
<path
   id="path39"
   d="M 21.7042,65.219425 L 21.7042,48.891775 L 23.9272,48.891775 L 32.481,61.706325 L 32.481,48.891775 L 34.5596,48.891775 L 34.5596,65.220375 L 32.3366,65.220375 L 23.7828,52.405825 L 23.7828,65.220375 L 21.7042,65.220375 L 21.7042,65.219425 z"
   style="fill:#231f20" />
<path
   style="fill:#231f20"
   d="M 37.7801,114.95288 L 37.2576,113.43193 L 63.1926,104.97787 L 64.0001,105.59443 L 63.9051,106.45038 L 37.7801,114.95288 z"
   id="polygon41" />
<path
   style="fill:#231f20"
   d="M 5.0051,86.736925 L 7.0001,86.736925 L 21.8201,107.11538 L 20.4901,108.06538 L 5.0051,86.736925 z"
   id="polygon43" />
<path
   style="fill:#231f20"
   d="M 19.7776,66.406925 L 21.0601,67.356925 L 7.0001,86.736925 L 5.0051,86.736925 L 19.7776,66.406925 z"
   id="polygon45" />
<path
   style="fill:#231f20"
   d="M 24.3376,69.731925 L 25.6676,70.681925 L 13.6501,87.212875 L 12.3676,86.261925 L 24.3376,69.731925 z"
   id="polygon47" />
<path
   style="fill:#231f20"
   d="M 37.2576,60.042875 L 37.7801,58.522875 L 63.9051,67.024425 L 64.0001,67.880375 L 63.1926,68.497875 L 37.2576,60.042875 z"
   id="polygon49" />
<path
   id="path53"
   d="M 88.8958,12.385175 C 88.8958,9.674825 89.6235,7.554425 91.0789,6.022075 C 92.5343,4.488775 94.4134,3.722125 96.71525,3.722125 C 98.2229,3.722125 99.5814,4.082175 100.7917,4.802275 C 102.002,5.523325 102.92445,6.526525 103.56,7.814725 C 104.19555,9.102925 104.5119,10.564025 104.5119,12.196125 C 104.5119,13.851975 104.1775,15.333025 103.50965,16.639275 C 102.8418,17.945525 101.89465,18.935425 100.66915,19.607075 C 99.44365,20.278725 98.1222,20.615025 96.70385,20.615025 C 95.16675,20.615025 93.79305,20.243575 92.58275,19.501625 C 91.37245,18.759675 90.4557,17.745075 89.83155,16.461625 C 89.2074,15.178175 88.8958,13.818725 88.8958,12.385175 z M 91.1226,12.412725 C 91.1226,14.379225 91.65175,15.928675 92.71005,17.061075 C 93.76835,18.193475 95.09645,18.758725 96.69245,18.758725 C 98.31885,18.758725 99.6574,18.186825 100.70905,17.043975 C 101.75975,15.901125 102.2851,14.279475 102.2851,12.179025 C 102.2851,10.850925 102.0609,9.690975 101.61155,8.700125 C 101.1622,7.709275 100.5048,6.940725 99.63935,6.395425 C 98.7739,5.850125 97.803,5.577475 96.72665,5.577475 C 95.19715,5.577475 93.88045,6.102825 92.7775,7.152575 C 91.67455,8.202325 91.1226,9.956975 91.1226,12.412725 z"
   style="fill:#231f20" />
<path
   style="fill:#231f20"
   d="M 93.070097,22.755375 L 94.685097,22.755375 L 94.685097,50.685374 L 93.070097,50.685374 L 93.070097,22.755375 z"
   id="rect55" />
<path
   style="fill:#231f20"
   d="M 98.722602,22.755375 L 100.3376,22.755375 L 100.3376,50.685374 L 98.722602,50.685374 L 98.722602,22.755375 z"
   id="rect57" />
<path
   id="path61"
   d="M 155.6067,133.47693 L 155.6067,117.14833 L 157.8297,117.14833 L 166.3835,129.96287 L 166.3835,117.14833 L 168.4621,117.14833 L 168.4621,133.47693 L 166.2391,133.47693 L 157.6853,120.66238 L 157.6853,133.47693 L 155.6067,133.47693 L 155.6067,133.47693 z"
   style="fill:#231f20" /><path
   id="path63"
   d="M 172.17565,133.47693 L 172.17565,117.14833 L 174.3426,117.14833 L 174.3426,123.85818 L 182.78905,123.85818 L 182.78905,117.14833 L 184.956,117.14833 L 184.956,133.47693 L 182.78905,133.47693 L 182.78905,125.78763 L 174.3426,125.78763 L 174.3426,133.47693 L 172.17565,133.47693 z"
   style="fill:#231f20" />
<path
   id="path67"
   d="M 195.1989,136.31268 L 195.1989,137.75288 L 187.09445,137.75288 C 187.08305,137.39093 187.1429,137.04323 187.27115,136.70882 C 187.4792,136.15783 187.81075,135.61538 188.2677,135.08148 C 188.72465,134.54758 189.3792,133.93103 190.2342,133.23183 C 191.55945,132.13648 192.4591,131.27103 192.9322,130.63453 C 193.4053,129.99803 193.6409,129.39478 193.6409,128.82667 C 193.6409,128.23198 193.42715,127.73133 192.99965,127.32188 C 192.57215,126.91338 192.01545,126.70913 191.3267,126.70913 C 190.599,126.70913 190.01855,126.92668 189.5825,127.36273 C 189.14645,127.79878 188.92605,128.40203 188.92035,129.17248 L 187.3766,129.00907 C 187.48205,127.85388 187.88105,126.97418 188.5736,126.36998 C 189.26615,125.76388 190.19525,125.46178 191.3609,125.46178 C 192.53795,125.46178 193.47085,125.78763 194.1558,126.43932 C 194.8417,127.09103 195.18465,127.89852 195.18465,128.86183 C 195.18465,129.35202 195.0849,129.83367 194.88445,130.30678 C 194.68305,130.77988 194.3496,131.27863 193.8841,131.80208 C 193.4167,132.32553 192.64435,133.04372 191.56515,133.95668 C 190.66265,134.71478 190.0822,135.22778 189.82475,135.49853 C 189.5673,135.76738 189.35355,136.03908 189.18445,136.31173 L 195.1989,136.31173 L 195.1989,136.31268 z"
   style="fill:#231f20" />
<path
   style="fill:#231f20"
   d="M 152.6826,118.13538 L 151.8751,119.51193 L 129.3126,106.49788 L 129.3126,105.59443 L 130.1201,105.11943 L 152.6826,118.13538 z"
   id="polygon69" />
</svg>