<?xml version="1.0" encoding="utf-8"?>
<!-- Generator: Adobe Illustrator 21.0.0, SVG Export Plug-In . SVG Version: 6.00 Build 0)  -->
<svg version="1.1" id="Слой_1" xmlns="http://www.w3.org/2000/svg" xmlns:xlink="http://www.w3.org/1999/xlink" x="0px" y="0px"
	 viewBox="0 0 229.2 251.4" style="enable-background:new 0 0 229.2 251.4;" xml:space="preserve">
<g>
	<polygon points="105.5,116.1 154.2,88 186.9,106.9 188.1,104.8 155.4,85.9 155.4,49.2 153,49.2 153,85.9 104.2,114.1 66.9,102 
		66.2,104.3 103.1,116.2 103.1,172.1 66.2,184.1 66.9,186.4 104.2,174.3 137,193.3 138.3,191.2 105.5,172.3 	"/>
	<rect x="113.5" y="121.4" width="2.4" height="45.6"/>
	<polygon points="17.8,143.3 17.8,143.3 17.8,143.3 36.7,117.3 34.7,115.9 15.8,141.9 15.8,141.9 15.7,142 14.7,143.5 14.7,143.5 
		14.2,144.2 14.7,144.9 14.7,144.9 14.9,145.2 15.8,146.5 15.8,146.5 34,171.5 35.9,170.1 17.1,144.2 	"/>
	<rect x="21.7" y="132.8" transform="matrix(0.5877 -0.8091 0.8091 0.5877 -93.6746 84.2369)" width="28.1" height="2.4"/>
	<polygon points="193.1,165.9 164.9,182.2 166.1,184.3 194.3,168 	"/>
	<polygon points="202.9,171 202.9,172.3 170.1,191.2 171.3,193.3 202.9,175 202.9,175 204.5,174.1 204.7,174 204.7,174 205.3,173.7 
		205.3,173 205.3,171 205.3,135.6 202.9,135.6 	"/>
	<rect x="167.1" y="90.4" transform="matrix(0.501 -0.8654 0.8654 0.501 -8.362 198.8322)" width="2.4" height="32.5"/>
	<polygon points="56.9,198.3 56.8,198.3 42.4,176 38.5,176 38.5,204.6 42.1,204.6 42.1,182.2 42.2,182.2 56.6,204.6 60.5,204.6 
		60.5,176 56.9,176 	"/>
	<polygon points="56.5,220.4 42.5,220.4 42.5,208.6 38.7,208.6 38.7,237.2 42.5,237.2 42.5,223.8 56.5,223.8 56.5,237.2 60.3,237.2 
		60.3,208.6 56.5,208.6 	"/>
	<polygon points="56.9,105.1 56.8,105.1 42.4,82.8 38.5,82.8 38.5,111.4 42.1,111.4 42.1,89 42.2,89 56.6,111.4 60.5,111.4 
		60.5,82.8 56.9,82.8 	"/>
	<polygon points="161.5,209.3 161.5,209.3 147.1,187 143.2,187 143.2,215.6 146.8,215.6 146.8,193.2 146.9,193.2 161.3,215.6 
		165.1,215.6 165.1,187 161.5,187 	"/>
	<polygon points="211.4,100.6 211.4,122.9 211.3,122.9 197,100.6 193.1,100.6 193.1,129.2 196.7,129.2 196.7,106.8 196.7,106.8 
		211.1,129.2 215,129.2 215,100.6 	"/>
	<polygon points="146.8,20.4 146.9,20.4 161.3,42.8 165.1,42.8 165.1,14.2 161.5,14.2 161.5,36.5 161.5,36.5 147.1,14.2 143.2,14.2 
		143.2,42.8 146.8,42.8 	"/>
	<polygon points="172.9,29.3 187,29.3 187,42.8 190.8,42.8 190.8,14.2 187,14.2 187,25.9 172.9,25.9 172.9,14.2 169.1,14.2 
		169.1,42.8 172.9,42.8 	"/>
	<path d="M201.1,40.8l-1.6,1.3c-2.4,2-3.6,3.6-3.6,3.6c-1.2,1.6-1.2,3.4-1.2,3.4h13.3v-2.4h-9.8c0.4-0.8,1.1-1.4,1.1-1.4
		c0.6-0.7,1.7-1.6,1.7-1.6l1.9-1.5c2.5-2.1,3.8-3.9,3.8-3.9c1.3-1.8,1.3-3.7,1.3-3.7c0-1.6-0.8-2.8-0.8-2.8c-0.8-1.2-2.2-2-2.2-2
		c-1.4-0.7-3.3-0.7-3.3-0.7c-1.8,0-3.2,0.7-3.2,0.7c-1.4,0.7-2.2,1.9-2.2,1.9c-0.8,1.3-1,3.1-1,3.1l2.6,0.4c0.1-2,1.2-3,1.2-3
		c1-1,2.8-1,2.8-1c1.1,0,2,0.4,2,0.4c0.8,0.4,1.3,1.2,1.3,1.2c0.5,0.8,0.5,1.7,0.5,1.7c0,1.4-1.1,2.9-1.1,2.9
		C203.4,38.9,201.1,40.8,201.1,40.8z"/>
</g>
</svg>
