<?xml version="1.0" encoding="UTF-8" standalone="no"?>
<!-- Generator: Adobe Illustrator 12.0.1, SVG Export Plug-In . SVG Version: 6.00 Build 51448)  -->
<svg
   xmlns:dc="http://purl.org/dc/elements/1.1/"
   xmlns:cc="http://creativecommons.org/ns#"
   xmlns:rdf="http://www.w3.org/1999/02/22-rdf-syntax-ns#"
   xmlns:svg="http://www.w3.org/2000/svg"
   xmlns="http://www.w3.org/2000/svg"
   xmlns:sodipodi="http://sodipodi.sourceforge.net/DTD/sodipodi-0.dtd"
   xmlns:inkscape="http://www.inkscape.org/namespaces/inkscape"
   version="1.1"
   id="Layer_1"
   width="179.932"
   height="153.685"
   viewBox="0 0 179.932 153.685"
   style="overflow:visible;enable-background:new 0 0 179.932 153.685;"
   xml:space="preserve"
   sodipodi:version="0.32"
   inkscape:version="0.46"
   sodipodi:docname="Thymin.svg"
   inkscape:output_extension="org.inkscape.output.svg.inkscape"><metadata
   id="metadata64"><rdf:RDF><cc:Work
       rdf:about=""><dc:format>image/svg+xml</dc:format><dc:type
         rdf:resource="http://purl.org/dc/dcmitype/StillImage" /></cc:Work></rdf:RDF></metadata><defs
   id="defs62"><inkscape:perspective
   sodipodi:type="inkscape:persp3d"
   inkscape:vp_x="0 : 76.842499 : 1"
   inkscape:vp_y="0 : 1000 : 0"
   inkscape:vp_z="179.93201 : 76.842499 : 1"
   inkscape:persp3d-origin="89.966003 : 51.228333 : 1"
   id="perspective66" />
	
	

	

	

	

	

	

	

	
</defs><sodipodi:namedview
   inkscape:window-height="675"
   inkscape:window-width="661"
   inkscape:pageshadow="2"
   inkscape:pageopacity="0.0"
   guidetolerance="10.0"
   gridtolerance="10.0"
   objecttolerance="10.0"
   borderopacity="1.0"
   bordercolor="#666666"
   pagecolor="#ffffff"
   id="base"
   showgrid="false"
   inkscape:zoom="3.006149"
   inkscape:cx="89.966003"
   inkscape:cy="76.842499"
   inkscape:window-x="198"
   inkscape:window-y="198"
   inkscape:current-layer="Layer_1" />
<path
   id="path5"
   d="M 128.3935,74.270375 L 128.3935,57.941775 L 130.6165,57.941775 L 139.1703,70.756325 L 139.1703,57.941775 L 141.2489,57.941775 L 141.2489,74.270375 L 139.0259,74.270375 L 130.4721,61.455825 L 130.4721,74.270375 L 128.3935,74.270375 z"
   style="fill:#231f20" /><path
   id="path7"
   d="M 144.96245,74.270375 L 144.96245,57.941775 L 147.1294,57.941775 L 147.1294,64.651625 L 155.57585,64.651625 L 155.57585,57.941775 L 157.7428,57.941775 L 157.7428,74.270375 L 155.57585,74.270375 L 155.57585,66.581075 L 147.1294,66.581075 L 147.1294,74.270375 L 144.96245,74.270375 z"
   style="fill:#231f20" />
<path
   id="path11"
   d="M 95.80755,130.88942 L 95.80755,114.56082 L 98.03055,114.56082 L 106.58435,127.37537 L 106.58435,114.56082 L 108.66295,114.56082 L 108.66295,130.88942 L 106.43995,130.88942 L 97.88615,118.07487 L 97.88615,130.88942 L 95.80755,130.88942 L 95.80755,130.88942 z"
   style="fill:#231f20" />
<path
   id="path15"
   d="M 95.91205,149.84287 L 95.91205,133.51427 L 98.079,133.51427 L 98.079,140.22412 L 106.52545,140.22412 L 106.52545,133.51427 L 108.6924,133.51427 L 108.6924,149.84287 L 106.52545,149.84287 L 106.52545,142.15357 L 98.079,142.15357 L 98.079,149.84287 L 95.91205,149.84287 z"
   style="fill:#231f20" />
<path
   style="fill:#231f20"
   d="M 135.6819,103.48287 L 134.06595,102.53287 L 134.06595,76.407875 L 135.6819,76.407875 L 135.6819,103.48287 z"
   id="polygon17" />
<path
   style="fill:#231f20"
   d="M 112.4069,116.97287 L 111.59845,115.54787 L 134.06595,102.53287 L 135.6819,103.48287 L 112.4069,116.97287 z"
   id="polygon19" />
<path
   style="fill:#231f20"
   d="M 68.75345,103.48287 L 70.36845,102.53287 L 92.83595,115.54787 L 92.02845,116.92442 L 68.75345,103.48287 z"
   id="polygon21" />
<path
   style="fill:#231f20"
   d="M 68.75345,65.767875 L 69.56095,65.292875 L 70.36845,65.767875 L 70.36845,102.53287 L 68.75345,103.48287 L 68.75345,65.767875 z"
   id="polygon23" />
<path
   style="fill:#231f20"
   d="M 74.405948,68.570377 L 76.020948,68.570377 L 76.020948,99.730375 L 74.405948,99.730375 L 74.405948,68.570377 z"
   id="rect25" />
<path
   style="fill:#231f20"
   d="M 102.24095,45.532875 L 102.24095,47.432875 L 70.36845,65.767875 L 69.56095,65.292875 L 69.56095,64.389425 L 102.24095,45.532875 z"
   id="polygon27" />
<path
   style="fill:#231f20"
   d="M 102.24095,47.432875 L 102.24095,45.532875 L 125.4694,58.926925 L 124.66095,60.351925 L 102.24095,47.432875 z"
   id="polygon29" />
<path
   id="path33"
   d="M 94.45665,12.505175 C 94.45665,9.794825 95.18435,7.674425 96.63975,6.142075 C 98.09515,4.608775 99.97425,3.842125 102.2761,3.842125 C 103.78375,3.842125 105.1432,4.202175 106.35255,4.922275 C 107.5619,5.643325 108.4853,6.646525 109.12085,7.934725 C 109.75545,9.221975 110.07275,10.684025 110.07275,12.316125 C 110.07275,13.971975 109.73835,15.453025 109.0705,16.759275 C 108.4017,18.065525 107.45455,19.055425 106.23,19.727075 C 105.0045,20.398725 103.6821,20.735025 102.2647,20.735025 C 100.7276,20.735025 99.3539,20.363575 98.1436,19.621625 C 96.9333,18.879675 96.01655,17.865075 95.3924,16.581625 C 94.76825,15.297225 94.45665,13.938725 94.45665,12.505175 z M 96.68345,12.532725 C 96.68345,14.499225 97.2126,16.048675 98.2709,17.181075 C 99.3292,18.313475 100.6573,18.878725 102.2533,18.878725 C 103.8797,18.878725 105.21825,18.306825 106.2699,17.163975 C 107.32155,16.021125 107.84595,14.399475 107.84595,12.299025 C 107.84595,10.970925 107.62175,9.810975 107.1724,8.820125 C 106.7221,7.829275 106.0647,7.060725 105.2002,6.515425 C 104.3357,5.970125 103.36385,5.697475 102.2875,5.697475 C 100.758,5.697475 99.4413,6.222825 98.33835,7.272575 C 97.2354,8.322325 96.68345,10.076975 96.68345,12.532725 z"
   style="fill:#231f20" />
<path
   style="fill:#231f20"
   d="M 98.820953,22.874425 L 100.43595,22.874425 L 100.43595,48.001926 L 98.820953,48.001926 L 98.820953,22.874425 z"
   id="rect35" />
<path
   style="fill:#231f20"
   d="M 104.04595,22.874425 L 105.66095,22.874425 L 105.66095,48.001926 L 104.04595,48.001926 L 104.04595,22.874425 z"
   id="rect37" />
<path
   id="path41"
   d="M 159.8176,122.94267 C 159.8176,120.23233 160.5453,118.11192 161.99975,116.57957 C 163.4561,115.04627 165.33425,114.27962 167.63705,114.27962 C 169.14375,114.27962 170.5032,114.63967 171.7135,115.35977 C 172.92285,116.08082 173.8453,117.08402 174.48085,118.37223 C 175.1164,119.66042 175.4337,121.12152 175.4337,122.75362 C 175.4337,124.40947 175.0993,125.89052 174.4305,127.19678 C 173.7617,128.50303 172.8155,129.49293 171.59095,130.16457 C 170.3645,130.83622 169.04305,131.17253 167.62565,131.17253 C 166.0876,131.17253 164.71485,130.80107 163.50455,130.05912 C 162.2933,129.31717 161.37655,128.30257 160.75335,127.01912 C 160.13015,125.73567 159.8176,124.37622 159.8176,122.94267 z M 162.0444,122.97022 C 162.0444,124.93672 162.57355,126.48617 163.6309,127.61857 C 164.69015,128.75002 166.0173,129.31623 167.61425,129.31623 C 169.2397,129.31623 170.5792,128.74433 171.6299,127.60147 C 172.6806,126.45862 173.2069,124.83697 173.2069,122.73652 C 173.2069,121.40842 172.9827,120.24847 172.5324,119.25762 C 172.0821,118.26677 171.42565,117.49822 170.56115,116.95292 C 169.6957,116.40762 168.72385,116.13497 167.64845,116.13497 C 166.118,116.13497 164.80225,116.66032 163.69835,117.71007 C 162.5954,118.76077 162.0444,120.51447 162.0444,122.97022 z"
   style="fill:#231f20" />
<path
   style="fill:#231f20"
   d="M 160.80845,113.78942 L 160.0019,115.16787 L 134.44595,100.44287 L 135.25345,99.017875 L 160.80845,113.78942 z"
   id="polygon43" />
<path
   style="fill:#231f20"
   d="M 158.0069,118.68287 L 157.19845,120.10787 L 131.6444,105.33537 L 132.4519,103.95788 L 158.0069,118.68287 z"
   id="polygon45" />
<path
   id="path49"
   d="M 4.4983,55.459425 L 4.4983,39.130825 L 6.66525,39.130825 L 6.66525,45.840675 L 15.1117,45.840675 L 15.1117,39.130825 L 17.27865,39.130825 L 17.27865,55.459425 L 15.1117,55.459425 L 15.1117,47.770125 L 6.66525,47.770125 L 6.66525,55.459425 L 4.4983,55.459425 z"
   style="fill:#231f20" />
<path
   id="path53"
   d="M 19.7021,56.498725 L 21.2012,56.290675 C 21.37505,57.141875 21.6686,57.755575 22.0828,58.131775 C 22.49795,58.507025 23.0062,58.695125 23.60945,58.695125 C 24.3248,58.695125 24.92615,58.450025 25.4135,57.961725 C 25.90085,57.471525 26.14405,56.865425 26.14405,56.141525 C 26.14405,55.451825 25.91795,54.883725 25.46385,54.435325 C 25.0107,53.986925 24.435,53.763675 23.7358,53.763675 C 23.44985,53.763675 23.09455,53.819725 22.6699,53.930875 L 22.83805,52.609425 C 22.93875,52.620825 23.0195,52.626525 23.08125,52.626525 C 23.72155,52.626525 24.2982,52.460275 24.8112,52.126825 C 25.3242,51.793375 25.5807,51.279425 25.5807,50.584975 C 25.5807,50.034925 25.39355,49.578925 25.01925,49.218875 C 24.64495,48.857875 24.16235,48.677375 23.5705,48.677375 C 22.98435,48.677375 22.4951,48.861675 22.10465,49.230275 C 21.7142,49.598875 21.46245,50.151775 21.3513,50.888975 L 19.8522,50.622025 C 20.03555,49.613125 20.4545,48.831275 21.1062,48.277425 C 21.7579,47.722625 22.5692,47.445225 23.53915,47.445225 C 24.20795,47.445225 24.8245,47.587725 25.3869,47.874625 C 25.9493,48.160575 26.37965,48.551025 26.6789,49.045025 C 26.97625,49.539975 27.12635,50.064375 27.12635,50.620125 C 27.12635,51.148325 26.9848,51.629025 26.70075,52.062225 C 26.4167,52.495425 25.9968,52.839325 25.4401,53.095825 C 26.164,53.263025 26.7264,53.609775 27.13015,54.135125 C 27.53295,54.662375 27.7353,55.319775 27.7353,56.110175 C 27.7353,57.179875 27.34485,58.085225 26.56395,58.828125 C 25.78305,59.571025 24.796,59.943425 23.6028,59.943425 C 22.52645,59.943425 21.6325,59.623275 20.9219,58.984875 C 20.20845,58.343625 19.8028,57.516175 19.7021,56.498725 z"
   style="fill:#231f20" />
<path
   id="path57"
   d="M 41.1512,49.733775 L 43.31815,50.279075 C 42.86595,52.055575 42.0518,53.410275 40.8776,54.342225 C 39.70245,55.274175 38.2651,55.741575 36.56745,55.741575 C 34.80995,55.741575 33.38115,55.383425 32.2801,54.666175 C 31.17905,53.949875 30.34115,52.910575 29.7664,51.552075 C 29.19165,50.192625 28.90475,48.732475 28.90475,47.173525 C 28.90475,45.473025 29.2287,43.988175 29.87755,42.721825 C 30.5264,41.455475 31.44885,40.492175 32.6468,39.835725 C 33.8438,39.179275 35.1605,38.849625 36.5988,38.849625 C 38.22995,38.849625 39.6008,39.265725 40.7123,40.097925 C 41.82475,40.931075 42.599,42.100525 43.036,43.610075 L 40.9137,44.110725 C 40.5356,42.923225 39.98745,42.058725 39.26925,41.517225 C 38.5501,40.975725 37.6457,40.704975 36.557,40.704975 C 35.3049,40.704975 34.258,41.005175 33.4163,41.606525 C 32.57555,42.207875 31.98465,43.014425 31.6436,44.028075 C 31.30255,45.041725 31.1325,46.085775 31.1325,47.162125 C 31.1325,48.550075 31.3339,49.761325 31.73765,50.796825 C 32.1414,51.832325 32.7684,52.605625 33.62055,53.117675 C 34.4727,53.629725 35.3942,53.886225 36.38695,53.886225 C 37.5944,53.886225 38.61565,53.537575 39.4526,52.839325 C 40.28955,52.141075 40.8548,51.106525 41.1512,49.733775 z"
   style="fill:#231f20" />
<path
   style="fill:#231f20"
   d="M 45.71595,52.514425 L 46.52345,51.136925 L 69.56095,64.389425 L 69.56095,65.292875 L 68.75345,65.767875 L 45.71595,52.514425 z"
   id="polygon59" />
</svg>